HIERARCHY
ROOT root
{
  OFFSET 0 93.2929 0
  CHANNELS 6 Xposition Yposition Zposition Zrotation Xrotation Yrotation
  JOINT torso_1
  {
    OFFSET 0 5.07867 -1.15138
    CHANNELS 6 Xposition Yposition Zposition Zrotation Xrotation Yrotation
    JOINT torso_2
    {
      OFFSET 0 5.61661 1.07143
      CHANNELS 6 Xposition Yposition Zposition Zrotation Xrotation Yrotation
      JOINT torso_3
      {
        OFFSET -1.02604e-17 5.98978 0.11501
        CHANNELS 6 Xposition Yposition Zposition Zrotation Xrotation Yrotation
        JOINT torso_4
        {
          OFFSET -1.10457e-17 6.50583 -0.443523
          CHANNELS 6 Xposition Yposition Zposition Zrotation Xrotation Yrotation
          JOINT torso_5
          {
            OFFSET -1.97295e-17 7.60548 -1.50593
            CHANNELS 6 Xposition Yposition Zposition Zrotation Xrotation Yrotation
            JOINT torso_6
            {
              OFFSET -2.53307e-17 9.49737 -0.914492
              CHANNELS 6 Xposition Yposition Zposition Zrotation Xrotation Yrotation
              JOINT torso_7
              {
                OFFSET -2.90401e-17 10.5513 1.57691
                CHANNELS 6 Xposition Yposition Zposition Zrotation Xrotation Yrotation
                JOINT neck_1
                {
                  OFFSET -1.29193e-17 4.78644 0.715339
                  CHANNELS 6 Xposition Yposition Zposition Zrotation Xrotation Yrotation
                  JOINT neck_2
                  {
                    OFFSET -1.8116e-17 4.82109 0.421791
                    CHANNELS 6 Xposition Yposition Zposition Zrotation Xrotation Yrotation
                    JOINT head
                    {
                      OFFSET -2.00958e-17 4.83041 0.765062
                      CHANNELS 6 Xposition Yposition Zposition Zrotation Xrotation Yrotation
                      End Site
                      {
                        OFFSET 0 0.1 0
                      }
                    }
                  }
                }
                JOINT l_shoulder
                {
                  OFFSET 1.23299 -7.60731 7.53374
                  CHANNELS 6 Xposition Yposition Zposition Zrotation Xrotation Yrotation
                  JOINT l_up_arm
                  {
                    OFFSET 12.9547 3.2495 -3.26872
                    CHANNELS 6 Xposition Yposition Zposition Zrotation Xrotation Yrotation
                    JOINT l_low_arm
                    {
                      OFFSET 29.2081 0.0598081 0.137039
                      CHANNELS 6 Xposition Yposition Zposition Zrotation Xrotation Yrotation
                      JOINT l_hand
                      {
                        OFFSET 24.234 0.0496219 0.113701
                        CHANNELS 6 Xposition Yposition Zposition Zrotation Xrotation Yrotation
                        End Site
                        {
                          OFFSET 0.1 0 0
                        }
                      }
                    }
                  }
                }
                JOINT r_shoulder
                {
                  OFFSET -1.23299 -7.60729 7.53365
                  CHANNELS 6 Xposition Yposition Zposition Zrotation Xrotation Yrotation
                  JOINT r_up_arm
                  {
                    OFFSET -12.9547 3.2495 -3.26872
                    CHANNELS 6 Xposition Yposition Zposition Zrotation Xrotation Yrotation
                    JOINT r_low_arm
                    {
                      OFFSET -29.2081 0.0598081 0.137039
                      CHANNELS 6 Xposition Yposition Zposition Zrotation Xrotation Yrotation
                      JOINT r_hand
                      {
                        OFFSET -24.234 0.0496218 0.113702
                        CHANNELS 6 Xposition Yposition Zposition Zrotation Xrotation Yrotation
                        End Site
                        {
                          OFFSET -0.1 0 0
                        }
                      }
                    }
                  }
                }
              }
            }
          }
        }
      }
    }
  }
  JOINT l_up_leg
  {
    OFFSET 9.23673 -4.20556 2.0327
    CHANNELS 6 Xposition Yposition Zposition Zrotation Xrotation Yrotation
    JOINT l_low_leg
    {
      OFFSET -0.852353 -38.7721 -0.655187
      CHANNELS 6 Xposition Yposition Zposition Zrotation Xrotation Yrotation
      JOINT l_foot
      {
        OFFSET -2.32622 -40.4017 -6.04875
        CHANNELS 6 Xposition Yposition Zposition Zrotation Xrotation Yrotation
        JOINT l_toes
        {
          OFFSET 0.779096 -9.8844 12.4959
          CHANNELS 6 Xposition Yposition Zposition Zrotation Xrotation Yrotation
          End Site
          {
            OFFSET 0 0 0.1
          }
        }
      }
    }
  }
  JOINT r_up_leg
  {
    OFFSET -9.23673 -4.20556 2.0327
    CHANNELS 6 Xposition Yposition Zposition Zrotation Xrotation Yrotation
    JOINT r_low_leg
    {
      OFFSET 0.852353 -38.7721 -0.655187
      CHANNELS 6 Xposition Yposition Zposition Zrotation Xrotation Yrotation
      JOINT r_foot
      {
        OFFSET 2.32622 -40.4017 -6.04875
        CHANNELS 6 Xposition Yposition Zposition Zrotation Xrotation Yrotation
        JOINT r_toes
        {
          OFFSET -0.779096 -9.8844 12.4959
          CHANNELS 6 Xposition Yposition Zposition Zrotation Xrotation Yrotation
          End Site
          {
            OFFSET 0 0 0.1
          }
        }
      }
    }
  }
}
MOTION
Frames: 7
Frame Time: 0.016667
-13.8515 92.432 70.0601 3.99507 -1.34576 -0.885589 0 5.07867 -1.15138 -0.820356 4.22125 -0.0480792 0 5.61661 1.07143 -0.506094 3.77851 -0.168492 -1.02604e-17 5.98978 0.11501 -0.298894 3.85345 -0.062675 -1.10457e-17 6.50583 -0.443523 -0.107712 3.71382 -0.0167325 -1.97295e-17 7.60548 -1.50593 0.115348 3.01143 -0.0421471 -2.53307e-17 9.49737 -0.914492 0.34266 2.82032 -0.332704 -2.90401e-17 10.5513 1.57691 -0.02228 0.679928 0.0547654 -1.29193e-17 4.78644 0.715339 -0.0156763 1.11462 -1.40359 -1.8116e-17 4.82109 0.421791 -0.515134 -8.57742 -0.825494 -2.00958e-17 4.83041 0.765062 -3.22754 -10.7292 2.13844 1.23299 -7.60731 7.53374 1.64803 2.26349 -0.566748 12.9547 3.2495 -3.26872 -80.3066 24.7677 -10.1772 29.2081 0.0598081 0.137039 2.90504 -0.34498 -14.133 24.234 0.0496219 0.113701 1.46033 -29.7253 -3.5277 -1.23299 -7.60729 7.53365 2.98629 3.19691 2.24511 -12.9547 3.2495 -3.26872 71.8435 14.4159 6.43919 -29.2081 0.0598081 0.137039 -2.5252 -0.257847 12.2553 -24.234 0.0496218 0.113702 2.6367 -25.2861 4.5982 9.23673 -4.20556 2.0327 -1.36526 -5.13003 -16.4735 -0.852353 -38.7721 -0.655187 -1.69254 6.3135 -0.0169568 -2.32622 -40.4017 -6.04875 -1.17367 -0.662097 15.4883 0.779096 -9.8844 12.4959 -2.1452e-16 -8.02619e-16 1.99043e-17 -9.23673 -4.20556 2.0327 -1.8907 -0.588942 17.0291 0.852353 -38.7721 -0.655187 0.582174 2.17417 0.0269059 2.32622 -40.4017 -6.04875 -4.6522 -4.87812 -14.873 -0.779096 -9.8844 12.4959 -5.96354e-16 -5.59082e-16 -1.27471e-14 
-13.7689 92.4426 70.0532 3.97682 -1.29329 -1.32106 0 5.07867 -1.15138 -0.7915 3.99033 -0.00334887 0 5.61661 1.07143 -0.494462 3.60621 -0.121851 -1.02604e-17 5.98978 0.11501 -0.29674 3.73675 -0.0179478 -1.10457e-17 6.50583 -0.443523 -0.115239 3.68412 0.0269915 -1.97295e-17 7.60548 -1.50593 0.107168 3.04243 0.003452 -2.53307e-17 9.49737 -0.914492 0.341467 2.88296 -0.282794 -2.90401e-17 10.5513 1.57691 -0.0207249 0.67821 0.0573195 -1.29193e-17 4.78644 0.715339 -0.023016 0.966234 -1.3287 -1.8116e-17 4.82109 0.421791 -0.562798 -8.61501 -0.791303 -2.00958e-17 4.83041 0.765062 -3.25656 -10.7432 2.21342 1.23299 -7.60731 7.53374 1.508 2.20516 -0.503674 12.9547 3.2495 -3.26872 -80.318 24.6719 -9.86681 29.2081 0.0598081 0.137039 2.95579 -0.357596 -14.3848 24.234 0.0496219 0.113701 1.19138 -30.5059 -3.72167 -1.23299 -7.60729 7.53365 3.07472 3.17646 2.18775 -12.9547 3.2495 -3.26872 71.7278 14.3546 6.4745 -29.2081 0.0598081 0.137039 -2.51548 -0.255791 12.2074 -24.234 0.0496218 0.113702 2.42777 -24.5919 4.25137 9.23673 -4.20556 2.0327 -1.31724 -4.90582 -16.2325 -0.852353 -38.7721 -0.655187 -1.61598 6.0291 -0.0202235 -2.32622 -40.4017 -6.04875 -1.10565 -0.677362 15.4744 0.779096 -9.8844 12.4959 2.08727e-16 -7.86519e-16 3.8047e-18 -9.23673 -4.20556 2.0327 -1.888 -0.629289 16.8805 0.852353 -38.7721 -0.655187 0.543738 2.03058 0.0258098 2.32622 -40.4017 -6.04875 -4.60901 -4.79832 -14.8686 -0.779096 -9.8844 12.4959 -5.96354e-16 -5.59082e-16 -1.27471e-14 
-13.6862 92.4538 70.0661 3.97093 -1.26815 -1.7094 0 5.07867 -1.15138 -0.783675 3.75701 0.0344483 0 5.61661 1.07143 -0.497969 3.43342 -0.0842182 -1.02604e-17 5.98978 0.11501 -0.304496 3.62114 0.0179112 -1.10457e-17 6.50583 -0.443523 -0.127494 3.65808 0.0619094 -1.97295e-17 7.60548 -1.50593 0.0979668 3.07767 0.0405274 -2.53307e-17 9.49737 -0.914492 0.341853 2.94967 -0.24232 -2.90401e-17 10.5513 1.57691 -0.0189367 0.675398 0.0597917 -1.29193e-17 4.78644 0.715339 -0.0255683 0.84372 -1.27039 -1.8116e-17 4.82109 0.421791 -0.588634 -8.66005 -0.764083 -2.00958e-17 4.83041 0.765062 -3.21618 -10.7433 2.29663 1.23299 -7.60731 7.53374 1.38612 2.14118 -0.434948 12.9547 3.2495 -3.26872 -80.2963 24.651 -9.59902 29.2081 0.0598081 0.137039 3.00542 -0.370166 -14.6313 24.234 0.0496219 0.113701 0.904854 -31.3903 -3.87922 -1.23299 -7.60729 7.53365 3.14776 3.14857 2.12481 -12.9547 3.2495 -3.26872 71.642 14.2778 6.49903 -29.2081 0.0598081 0.137039 -2.49632 -0.251768 12.1131 -24.234 0.0496218 0.113702 2.26902 -23.8804 3.96878 9.23673 -4.20556 2.0327 -1.29112 -4.66113 -15.9225 -0.852353 -38.7721 -0.655187 -1.54125 5.75127 -0.0230441 -2.32622 -40.4017 -6.04875 -1.06729 -0.685475 15.4632 0.779096 -9.8844 12.4959 7.42953e-16 -7.61076e-16 -2.16383e-17 -9.23673 -4.20556 2.0327 -1.90253 -0.660724 16.7632 0.852353 -38.7721 -0.655187 0.52343 1.95471 0.0251918 2.32622 -40.4017 -6.04875 -4.56957 -4.74303 -14.8679 -0.779096 -9.8844 12.4959 -5.96354e-16 -5.59082e-16 -1.27471e-14 
-13.6028 92.4713 70.1031 3.94921 -1.31796 -2.0785 0 5.07867 -1.15138 -0.79047 3.55182 0.0687278 0 5.61661 1.07143 -0.511234 3.28194 -0.0526162 -1.02604e-17 5.98978 0.11501 -0.318333 3.52006 0.0477388 -1.10457e-17 6.50583 -0.443523 -0.142572 3.63452 0.0907065 -1.97295e-17 7.60548 -1.50593 0.0887451 3.10601 0.0713304 -2.53307e-17 9.49737 -0.914492 0.343935 3.00529 -0.209033 -2.90401e-17 10.5513 1.57691 -0.0177203 0.673057 0.0614513 -1.29193e-17 4.78644 0.715339 -0.0214062 0.732733 -1.21294 -1.8116e-17 4.82109 0.421791 -0.591862 -8.70813 -0.736407 -2.00958e-17 4.83041 0.765062 -3.13988 -10.7138 2.38031 1.23299 -7.60731 7.53374 1.26935 2.08747 -0.393142 12.9547 3.2495 -3.26872 -80.2514 24.6638 -9.37253 29.2081 0.0598081 0.137039 3.04642 -0.380721 -14.8351 24.234 0.0496219 0.113701 0.65589 -32.2626 -3.95875 -1.23299 -7.60729 7.53365 3.19887 3.1273 2.06759 -12.9547 3.2495 -3.26872 71.5879 14.2988 6.52733 -29.2081 0.0598081 0.137039 -2.46583 -0.24543 11.9631 -24.234 0.0496218 0.113702 2.18508 -23.364 3.78713 9.23673 -4.20556 2.0327 -1.26034 -4.32129 -15.5363 -0.852353 -38.7721 -0.655187 -1.45864 5.44398 -0.0257384 -2.32622 -40.4017 -6.04875 -1.03354 -0.666395 15.4505 0.779096 -9.8844 12.4959 -2.50971e-16 -8.0249e-16 1.97751e-17 -9.23673 -4.20556 2.0327 -1.90277 -0.621148 16.748 0.852353 -38.7721 -0.655187 0.512106 1.91241 0.0248355 2.32622 -40.4017 -6.04875 -4.55777 -4.64854 -14.8652 -0.779096 -9.8844 12.4959 -5.96354e-16 -5.59082e-16 -1.27471e-14 
-13.5188 92.4882 70.1561 3.93651 -1.38571 -2.42443 0 5.07867 -1.15138 -0.816374 3.35064 0.096507 0 5.61661 1.07143 -0.538477 3.13553 -0.0300879 -1.02604e-17 5.98978 0.11501 -0.342059 3.42487 0.068234 -1.10457e-17 6.50583 -0.443523 -0.163499 3.61818 0.109992 -1.97295e-17 7.60548 -1.50593 0.0757034 3.14141 0.0931855 -2.53307e-17 9.49737 -0.914492 0.343326 3.06702 -0.184409 -2.90401e-17 10.5513 1.57691 -0.0173267 0.668972 0.0610667 -1.29193e-17 4.78644 0.715339 -0.0133202 0.652344 -1.12917 -1.8116e-17 4.82109 0.421791 -0.592184 -8.7541 -0.696634 -2.00958e-17 4.83041 0.765062 -3.02545 -10.7077 2.47722 1.23299 -7.60731 7.53374 1.18065 2.02547 -0.355026 12.9547 3.2495 -3.26872 -80.2142 24.618 -9.20039 29.2081 0.0598081 0.137039 3.07128 -0.387197 -14.9588 24.234 0.0496219 0.113701 0.474674 -32.8523 -3.96473 -1.23299 -7.60729 7.53365 3.21441 3.08416 2.00383 -12.9547 3.2495 -3.26872 71.608 14.375 6.56715 -29.2081 0.0598081 0.137039 -2.43339 -0.238778 11.8036 -24.234 0.0496218 0.113702 2.1421 -22.9783 3.68102 9.23673 -4.20556 2.0327 -1.24863 -3.94439 -15.1235 -0.852353 -38.7721 -0.655187 -1.36674 5.10187 -0.028213 -2.32622 -40.4017 -6.04875 -1.02326 -0.636764 15.4411 0.779096 -9.8844 12.4959 -8.1997e-17 -7.98478e-16 1.57629e-17 -9.23673 -4.20556 2.0327 -1.91762 -0.555832 16.7887 0.852353 -38.7721 -0.655187 0.504616 1.88443 0.0245953 2.32622 -40.4017 -6.04875 -4.54839 -4.5704 -14.8656 -0.779096 -9.8844 12.4959 -8.87078e-16 -5.49997e-16 -1.27289e-14 
-13.4357 92.4975 70.216 3.92913 -1.47947 -2.72702 0 5.07867 -1.15138 -0.853736 3.12063 0.116442 0 5.61661 1.07143 -0.573696 2.97449 -0.0167312 -1.02604e-17 5.98978 0.11501 -0.371416 3.33033 0.0793572 -1.10457e-17 6.50583 -0.443523 -0.187585 3.62687 0.119885 -1.97295e-17 7.60548 -1.50593 0.0595609 3.21662 0.106081 -2.53307e-17 9.49737 -0.914492 0.339155 3.17698 -0.168225 -2.90401e-17 10.5513 1.57691 -0.0176619 0.659926 0.0586448 -1.29193e-17 4.78644 0.715339 -0.00159166 0.587311 -1.00619 -1.8116e-17 4.82109 0.421791 -0.592889 -8.80259 -0.638973 -2.00958e-17 4.83041 0.765062 -2.89124 -10.7125 2.56249 1.23299 -7.60731 7.53374 1.09202 1.93685 -0.319777 12.9547 3.2495 -3.26872 -80.1728 24.4766 -9.11427 29.2081 0.0598081 0.137039 3.07876 -0.389156 -14.996 24.234 0.0496219 0.113701 0.402257 -33.0209 -3.83939 -1.23299 -7.60729 7.53365 3.23043 3.00291 1.94193 -12.9547 3.2495 -3.26872 71.6571 14.4505 6.63739 -29.2081 0.0598081 0.137039 -2.40114 -0.232258 11.6451 -24.234 0.0496218 0.113702 2.12835 -22.6796 3.60354 9.23673 -4.20556 2.0327 -1.24996 -3.53226 -14.8043 -0.852353 -38.7721 -0.655187 -1.26936 4.73908 -0.0302344 -2.32622 -40.4017 -6.04875 -1.03291 -0.62726 15.4373 0.779096 -9.8844 12.4959 2.48481e-17 -7.95139e-16 1.2424e-17 -9.23673 -4.20556 2.0327 -1.94447 -0.444024 16.8291 0.852353 -38.7721 -0.655187 0.49433 1.846 0.0242594 2.32622 -40.4017 -6.04875 -4.53849 -4.52948 -14.8694 -0.779096 -9.8844 12.4959 -5.44998e-16 -5.67701e-16 -1.27433e-14 
-13.3409 92.491 70.2704 3.93072 -1.57513 -2.96895 0 5.07867 -1.15138 -0.886559 2.88305 0.124436 0 5.61661 1.07143 -0.603288 2.81051 -0.0145025 -1.02604e-17 5.98978 0.11501 -0.39563 3.237 0.0796784 -1.10457e-17 6.50583 -0.443523 -0.206743 3.64425 0.119186 -1.97295e-17 7.60548 -1.50593 0.0453583 3.30513 0.107655 -2.53307e-17 9.49737 -0.914492 0.332464 3.30132 -0.163455 -2.90401e-17 10.5513 1.57691 -0.0186624 0.649143 0.0552246 -1.29193e-17 4.78644 0.715339 0.013094 0.534782 -0.863019 -1.8116e-17 4.82109 0.421791 -0.599499 -8.84243 -0.572456 -2.00958e-17 4.83041 0.765062 -2.77387 -10.7211 2.63837 1.23299 -7.60731 7.53374 1.02261 1.83812 -0.282061 12.9547 3.2495 -3.26872 -80.1594 24.2867 -9.10342 29.2081 0.0598081 0.137039 3.06738 -0.386178 -14.9394 24.234 0.0496219 0.113701 0.413764 -32.7874 -3.62075 -1.23299 -7.60729 7.53365 3.23393 2.9023 1.88165 -12.9547 3.2495 -3.26872 71.7147 14.4958 6.7049 -29.2081 0.0598081 0.137039 -2.37042 -0.226135 11.4943 -24.234 0.0496218 0.113702 2.13786 -22.4497 3.57254 9.23673 -4.20556 2.0327 -1.27229 -3.14763 -14.6065 -0.852353 -38.7721 -0.655187 -1.18251 4.41536 -0.031515 -2.32622 -40.4017 -6.04875 -1.04227 -0.674327 15.4364 0.779096 -9.8844 12.4959 1.83049e-16 -7.90195e-16 7.48025e-18 -9.23673 -4.20556 2.0327 -1.99273 -0.322991 16.8516 0.852353 -38.7721 -0.655187 0.485336 1.8124 0.0239601 2.32622 -40.4017 -6.04875 -4.54567 -4.56083 -14.8796 -0.779096 -9.8844 12.4959 -5.15187e-16 -5.69099e-16 -1.27447e-14 
